<?xml version="1.0" standalone="no"?>
<!DOCTYPE svg PUBLIC "-//W3C//DTD SVG 20010904//EN" "http://www.w3.org/TR/2001/REC-SVG-20010904/DTD/svg10.dtd">
<svg version="1.0" xmlns="http://www.w3.org/2000/svg" width="900.000000pt" height="900.000000pt" viewBox="0 0 900.000000 900.000000" preserveAspectRatio="xMidYMid meet">

<g transform="translate(0.000000,1200.000000) scale(0.100000,-0.100000)" fill="#4B0082" stroke="none">
<path d="M5960 9732 c-91 -47 -270 -156 -270 -164 0 -10 232 -349 237 -345 6 7 213 450 211 452 -14 12 -107 64 -123 69 -12 3 -36 -2 -55 -12z"/>
<path d="M6171 9598 c-10 -24 -60 -130 -110 -237 -51 -107 -89 -201 -86 -209 4 -11 527 -781 550 -810 4 -4 455 825 455 835 0 8 -771 463 -785 463 -3 0 -14 -19 -24 -42z"/>
<path d="M4910 9121 l-715 -417 -3 -100 -2 -99 148 -180 c81 -99 282 -344 446 -544 l299 -363 51 108 c28 60 211 450 406 867 195 416 357 757 360 757 3 0 12 -12 21 -26 l16 -26 12 30 c11 26 10 34 -6 58 l-18 28 -9 -27 c-6 -15 -13 -27 -17 -27 -4 0 -64 83 -133 185 -70 101 -130 186 -134 189 -4 2 -329 -183 -722 -413z"/>
<path d="M7027 9128 c-8 -13 -115 -207 -237 -432 -200 -368 -221 -412 -210 -430 25 -41 883 -1291 894 -1303 9 -10 48 53 174 285 l162 297 -2 579 -3 580 -365 213 c-201 118 -373 218 -382 224 -13 7 -20 4 -31 -13z"/>
<path d="M5530 8230 c-221 -473 -406 -860 -409 -860 -3 0 -12 10 -20 22 l-13 22 -15 -28 c-13 -24 -13 -30 3 -53 l17 -26 14 27 c8 14 18 24 22 22 4 -3 122 -145 262 -315 190 -232 257 -307 265 -298 15 17 834 1524 834 1536 0 10 -521 775 -544 799 -10 10 -95 -163 -416 -848z"/>
<path d="M4190 7493 l0 -908 196 -113 c108 -63 199 -110 203 -105 16 18 463 983 459 992 -4 12 -848 1041 -854 1041 -2 0 -4 -408 -4 -907z"/>
<path d="M6512 8305 c-10 -21 -9 -31 5 -51 l16 -26 14 27 c13 23 12 30 -2 51 -19 30 -19 30 -33 -1z"/>
<path d="M6114 7453 c-229 -422 -419 -770 -422 -773 -2 -3 -12 5 -22 17 l-18 23 -16 -24 c-14 -23 -14 -26 4 -48 20 -23 29 -20 44 17 5 14 0 21 376 -440 189 -231 348 -426 355 -433 9 -10 75 24 320 168 l309 180 174 318 c95 174 187 342 203 373 l30 56 -451 659 c-249 362 -456 663 -460 667 -4 5 -196 -337 -426 -760z"/>
<path d="M7666 7155 c-76 -140 -142 -255 -147 -255 -4 0 -14 9 -22 20 -13 19 -14 19 -27 -5 -11 -21 -11 -29 0 -51 l14 -25 19 26 19 26 115 -169 115 -170 29 17 29 16 0 413 c0 226 -1 412 -2 412 -2 0 -65 -115 -142 -255z"/>
<path d="M4867 6813 c-171 -366 -224 -488 -215 -495 54 -35 579 -338 585 -338 8 1 372 665 375 685 2 10 -502 633 -512 634 -3 1 -108 -218 -233 -486z"/>
<path d="M7319 6519 c-90 -166 -165 -305 -167 -310 -2 -4 121 64 272 153 186 108 273 164 268 172 -43 70 -195 286 -201 286 -4 0 -81 -135 -172 -301z"/>
<path d="M5490 6308 c-90 -167 -172 -317 -182 -333 l-17 -31 341 -198 c215 -126 351 -199 368 -199 28 0 371 192 367 205 -4 13 -699 858 -706 858 -4 0 -81 -136 -171 -302z"/>
</g>

</svg>
